<svg width="12" height="6" viewBox="0 0 12 6" fill="none" xmlns="http://www.w3.org/2000/svg">
<path fill-rule="evenodd" clip-rule="evenodd" d="M11.8645 5.87412C11.8216 5.91402 11.7707 5.94568 11.7146 5.96728C11.6586 5.98888 11.5985 6 11.5378 6C11.4771 6 11.4169 5.98888 11.3609 5.96728C11.3048 5.94568 11.2539 5.91402 11.211 5.87412L5.99994 1.03507L0.788858 5.87412C0.745952 5.91396 0.695014 5.94556 0.638953 5.96712C0.582892 5.98868 0.522807 5.99977 0.462128 5.99977C0.401448 5.99977 0.341363 5.98868 0.285302 5.96712C0.229241 5.94556 0.178304 5.91396 0.135397 5.87412C0.0924902 5.83429 0.0584545 5.78699 0.0352335 5.73494C0.0120116 5.68289 6.10678e-05 5.62711 6.10727e-05 5.57077C6.10776e-05 5.51443 0.0120116 5.45865 0.0352335 5.4066C0.0584546 5.35455 0.0924903 5.30726 0.135397 5.26742L5.67321 0.125876C5.71608 0.0859751 5.767 0.0543179 5.82307 0.0327181C5.87913 0.0111179 5.93924 -5.29854e-07 5.99994 -5.24547e-07C6.06064 -5.19241e-07 6.12075 0.0111179 6.17681 0.0327181C6.23288 0.0543179 6.2838 0.0859751 6.32667 0.125876L11.8645 5.26742C11.9075 5.30722 11.9416 5.3545 11.9648 5.40656C11.9881 5.45861 12.0001 5.51441 12.0001 5.57077C12.0001 5.62713 11.9881 5.68293 11.9648 5.73499C11.9416 5.78704 11.9075 5.83432 11.8645 5.87412Z" fill="#2183E6"/>
</svg>
