<svg width="12" height="6" viewBox="0 0 12 6" fill="none" xmlns="http://www.w3.org/2000/svg">
<path fill-rule="evenodd" clip-rule="evenodd" d="M0.135578 0.125877C0.178446 0.0859754 0.229372 0.0543181 0.285438 0.0327181C0.341503 0.0111181 0.401608 0 0.462309 0C0.52301 0 0.583115 0.0111181 0.639181 0.0327181C0.695247 0.0543181 0.746172 0.0859754 0.78904 0.125877L6.00012 4.96493L11.2112 0.125877C11.2541 0.0860399 11.305 0.0544397 11.3611 0.0328803C11.4172 0.0113209 11.4773 0.000224329 11.5379 0.000224329C11.5986 0.000224329 11.6587 0.0113209 11.7148 0.0328803C11.7708 0.0544397 11.8218 0.0860399 11.8647 0.125877C11.9076 0.165713 11.9416 0.213006 11.9648 0.265055C11.988 0.317104 12 0.37289 12 0.429228C12 0.485565 11.988 0.541351 11.9648 0.5934C11.9416 0.645449 11.9076 0.692742 11.8647 0.732579L6.32685 5.87412C6.28398 5.91402 6.23306 5.94568 6.17699 5.96728C6.12093 5.98888 6.06082 6 6.00012 6C5.93942 6 5.87932 5.98888 5.82325 5.96728C5.76718 5.94568 5.71626 5.91402 5.67339 5.87412L0.135578 0.732579C0.092602 0.692779 0.0585049 0.645497 0.0352401 0.593443C0.0119754 0.541389 0 0.485585 0 0.429228C0 0.37287 0.0119754 0.317066 0.0352401 0.265012C0.0585049 0.212958 0.092602 0.165677 0.135578 0.125877Z" fill="#212529"/>
</svg>
